<svg xmlns="http://www.w3.org/2000/svg" viewBox="0 0 24 24" aria-hidden="true">
  <path fill="currentColor" d="M12 2C6.48 2 2 6.58 2 12.26c0 4.52 2.87 8.35 6.85 9.7.5.09.68-.22.68-.48 0-.24-.01-.88-.01-1.73-2.79.62-3.38-1.37-3.38-1.37-.45-1.18-1.11-1.49-1.11-1.49-.91-.64.07-.63.07-.63 1 .07 1.53 1.05 1.53 1.05.9 1.57 2.36 1.12 2.94.86.09-.67.35-1.12.63-1.38-2.23-.26-4.58-1.14-4.58-5.08 0-1.12.39-2.03 1.03-2.74-.1-.26-.45-1.3.1-2.7 0 0 .84-.27 2.75 1.05A9.3 9.3 0 0 1 12 7.1c.85 0 1.71.12 2.51.35 1.9-1.32 2.74-1.05 2.74-1.05.55 1.4.21 2.44.1 2.7.64.71 1.03 1.62 1.03 2.74 0 3.95-2.36 4.82-4.6 5.07.36.32.68.94.68 1.9 0 1.37-.01 2.48-.01 2.82 0 .26.18.58.69.48A10.02 10.02 0 0 0 22 12.26C22 6.58 17.52 2 12 2Z"/>
</svg>

